<svg id="Layer_2" enable-background="new 0 0 24 24" height="24px" fill="white" viewBox="0 0 24 24" width="24px" xmlns="http://www.w3.org/2000/svg"><g><path d="m21.5 24h-19c-1.379 0-2.5-1.121-2.5-2.5v-19c0-1.379 1.121-2.5 2.5-2.5h19c1.379 0 2.5 1.121 2.5 2.5v19c0 1.379-1.121 2.5-2.5 2.5zm-19-23c-.827 0-1.5.673-1.5 1.5v19c0 .827.673 1.5 1.5 1.5h19c.827 0 1.5-.673 1.5-1.5v-19c0-.827-.673-1.5-1.5-1.5z"/></g><g><path d="m19.5 21h-15c-.827 0-1.5-.673-1.5-1.5v-4c0-.827.673-1.5 1.5-1.5h15c.827 0 1.5.673 1.5 1.5v4c0 .827-.673 1.5-1.5 1.5zm-15-6c-.275 0-.5.225-.5.5v4c0 .275.225.5.5.5h15c.275 0 .5-.225.5-.5v-4c0-.275-.225-.5-.5-.5z"/></g></svg>