<svg height="24" viewBox="0 0 512 512" width="24" xmlns="http://www.w3.org/2000/svg" xmlns:xlink="http://www.w3.org/1999/xlink"><linearGradient id="a" gradientTransform="matrix(1 0 0 -1 0 -12310)" gradientUnits="userSpaceOnUse" x1="0" x2="512" y1="-12566" y2="-12566"><stop offset="0" stop-color="#00f1ff"/><stop offset=".231" stop-color="#00d8ff"/><stop offset=".5138" stop-color="#00c0ff"/><stop offset=".7773" stop-color="#00b2ff"/><stop offset="1" stop-color="#00adff"/></linearGradient><path d="m512 256c0 141.386719-114.613281 256-256 256s-256-114.613281-256-256 114.613281-256 256-256 256 114.613281 256 256zm0 0" fill="url(#a)"/><g fill="#fff"><path d="m400.554688 112.519531c-.160157-.179687-.3125-.367187-.484376-.539062-.148437-.148438-.3125-.28125-.46875-.421875-7.105468-6.90625-16.792968-11.171875-27.464843-11.171875h-81.585938c-8.28125 0-15 6.71875-15 15 0 8.285156 6.71875 15 15 15h69.898438l-230.03125 230.035156.023437-73.441406c0-8.285157-6.710937-15-14.996094-15.003907-.003906 0-.003906 0-.003906 0-8.285156 0-15 6.714844-15 14.996094l-.027344 85.191406c0 21.75 17.695313 39.449219 39.449219 39.449219h81.585938c8.285156 0 15-6.714843 15-15 0-8.285156-6.714844-15-15-15h-69.796875l229.933594-229.933593v72.152343c0 8.285157 6.714843 15 15 15 8.285156 0 15-6.714843 15-15v-83.992187c0-10.597656-4.207032-20.226563-11.03125-27.320313zm0 0"/><path d="m254.808594 115.414062c0 6.578126-5.332032 11.914063-11.914063 11.914063-6.578125 0-11.914062-5.335937-11.914062-11.914063 0-6.578124 5.335937-11.914062 11.914062-11.914062 6.582031 0 11.914063 5.335938 11.914063 11.914062zm0 0"/><path d="m207.152344 115.414062c0 6.578126-5.335938 11.914063-11.914063 11.914063-6.582031 0-11.914062-5.335937-11.914062-11.914063 0-6.578124 5.332031-11.914062 11.914062-11.914062 6.578125 0 11.914063 5.335938 11.914063 11.914062zm0 0"/><path d="m159.496094 115.414062c0 6.578126-5.335938 11.914063-11.914063 11.914063s-11.914062-5.335937-11.914062-11.914063c0-6.578124 5.335937-11.914062 11.914062-11.914062s11.914063 5.335938 11.914063 11.914062zm0 0"/><path d="m127.328125 239.320312c0 6.578126-5.335937 11.914063-11.914063 11.914063-6.578124 0-11.914062-5.335937-11.914062-11.914063 0-6.582031 5.335938-11.914062 11.914062-11.914062 6.578126 0 11.914063 5.332031 11.914063 11.914062zm0 0"/><path d="m127.328125 191.664062c0 6.578126-5.335937 11.914063-11.914063 11.914063-6.578124 0-11.914062-5.335937-11.914062-11.914063 0-6.578124 5.335938-11.914062 11.914062-11.914062 6.578126 0 11.914063 5.335938 11.914063 11.914062zm0 0"/><path d="m127.328125 144.007812c0 6.582032-5.335937 11.914063-11.914063 11.914063-6.578124 0-11.914062-5.332031-11.914062-11.914063 0-6.578124 5.335938-11.914062 11.914062-11.914062 6.578126 0 11.914063 5.335938 11.914063 11.914062zm0 0"/><path d="m408.5 269.105469c0 6.578125-5.335938 11.914062-11.914062 11.914062-6.578126 0-11.914063-5.335937-11.914063-11.914062 0-6.582031 5.335937-11.914063 11.914063-11.914063 6.578124 0 11.914062 5.332032 11.914062 11.914063zm0 0"/><path d="m408.5 316.761719c0 6.582031-5.335938 11.914062-11.914062 11.914062-6.578126 0-11.914063-5.332031-11.914063-11.914062 0-6.578125 5.335937-11.914063 11.914063-11.914063 6.578124 0 11.914062 5.335938 11.914062 11.914063zm0 0"/><path d="m408.5 364.417969c0 6.578125-5.335938 11.914062-11.914062 11.914062-6.578126 0-11.914063-5.335937-11.914063-11.914062s5.335937-11.914063 11.914063-11.914063c6.578124 0 11.914062 5.335938 11.914062 11.914063zm0 0"/><path d="m284.59375 396.585938c0 6.578124-5.332031 11.914062-11.914062 11.914062-6.578126 0-11.914063-5.335938-11.914063-11.914062 0-6.578126 5.335937-11.914063 11.914063-11.914063 6.582031 0 11.914062 5.335937 11.914062 11.914063zm0 0"/><path d="m332.25 396.585938c0 6.578124-5.335938 11.914062-11.914062 11.914062-6.578126 0-11.914063-5.335938-11.914063-11.914062 0-6.578126 5.335937-11.914063 11.914063-11.914063 6.578124 0 11.914062 5.335937 11.914062 11.914063zm0 0"/><path d="m379.90625 396.585938c0 6.578124-5.335938 11.914062-11.914062 11.914062-6.582032 0-11.914063-5.335938-11.914063-11.914062 0-6.578126 5.332031-11.914063 11.914063-11.914063 6.578124 0 11.914062 5.335937 11.914062 11.914063zm0 0"/></g></svg>